HIERARCHY
ROOT Hips
{
	OFFSET 0.000000 0.000000 0.000000
	CHANNELS 6 Xposition Yposition Zposition Zrotation Yrotation Xrotation 
	JOINT LHipJoint
	{
		OFFSET 0.000000 0.000000 0.000000
		CHANNELS 3 Zrotation Yrotation Xrotation
		JOINT LeftUpLeg
		{
			OFFSET 1.363060 -1.794630 0.839290
			CHANNELS 3 Zrotation Yrotation Xrotation
			JOINT LeftLeg
			{
				OFFSET 2.448110 -6.726130 0.000000
				CHANNELS 3 Zrotation Yrotation Xrotation
				JOINT LeftFoot
				{
					OFFSET 2.562200 -7.039590 0.000000
					CHANNELS 3 Zrotation Yrotation Xrotation
					JOINT LeftToeBase
					{
						OFFSET 0.157640 -0.433110 2.322550
						CHANNELS 3 Zrotation Yrotation Xrotation
						End Site
						{
							OFFSET 0.000000 0.000000 0.000000
						}
					}
				}
			}
		}
	}
	JOINT RHipJoint
	{
		OFFSET 0.000000 0.000000 0.000000
		CHANNELS 3 Zrotation Yrotation Xrotation
		JOINT RightUpLeg
		{
			OFFSET -1.305520 -1.794630 0.839290
			CHANNELS 3 Zrotation Yrotation Xrotation
			JOINT RightLeg
			{
				OFFSET -2.542530 -6.985550 0.000000
				CHANNELS 3 Zrotation Yrotation Xrotation
				JOINT RightFoot
				{
					OFFSET -2.568260 -7.056230 0.000000
					CHANNELS 3 Zrotation Yrotation Xrotation
					JOINT RightToeBase
					{
						OFFSET -0.164730 -0.452590 2.363150
						CHANNELS 3 Zrotation Yrotation Xrotation
						End Site
						{
							OFFSET 0.000000 0.000000 0.000000
						}
					}
				}
			}
		}
	}
	JOINT LowerBack
	{
		OFFSET 0.000000 0.000000 0.000000
		CHANNELS 3 Zrotation Yrotation Xrotation
		JOINT Spine
		{
			OFFSET 0.028270 2.035590 -0.193380
			CHANNELS 3 Zrotation Yrotation Xrotation
			JOINT Spine1
			{
				OFFSET 0.056720 2.048850 -0.042750
				CHANNELS 3 Zrotation Yrotation Xrotation
				JOINT Neck
				{
					OFFSET 0.000000 0.000000 0.000000
					CHANNELS 3 Zrotation Yrotation Xrotation
					JOINT Neck1
					{
						OFFSET -0.054170 1.746240 0.172020
						CHANNELS 3 Zrotation Yrotation Xrotation
						JOINT Head
						{
							OFFSET 0.104070 1.761360 -0.123970
							CHANNELS 3 Zrotation Yrotation Xrotation
							End Site
							{
								OFFSET 0.000000 0.000000 0.000000
							}
						}
					}
				}
				JOINT LeftShoulder
				{
					OFFSET 0.000000 0.000000 0.000000
					CHANNELS 3 Zrotation Yrotation Xrotation
					JOINT LeftArm
					{
						OFFSET 3.362410 1.200890 -0.311210
						CHANNELS 3 Zrotation Yrotation Xrotation
						JOINT LeftForeArm
						{
							OFFSET 4.983000 -0.000000 -0.000000
							CHANNELS 3 Zrotation Yrotation Xrotation
							JOINT LeftHand
							{
								OFFSET 3.483560 -0.000000 -0.000000
								CHANNELS 3 Zrotation Yrotation Xrotation
								JOINT LeftFingerBase
								{
									OFFSET 0.000000 0.000000 0.000000
									CHANNELS 3 Zrotation Yrotation Xrotation
									JOINT LeftHandIndex1
									{
										OFFSET 0.715260 -0.000000 -0.000000
										CHANNELS 3 Zrotation Yrotation Xrotation
										End Site
										{
											OFFSET 0.000000 0.000000 0.000000
										}
									}
								}
								JOINT LThumb
								{
									OFFSET 0.000000 0.000000 0.000000
									CHANNELS 3 Zrotation Yrotation Xrotation
									End Site
									{
										OFFSET 0.000000 0.000000 0.000000
									}
								}
							}
						}
					}
				}
				JOINT RightShoulder
				{
					OFFSET 0.000000 0.000000 0.000000
					CHANNELS 3 Zrotation Yrotation Xrotation
					JOINT RightArm
					{
						OFFSET -3.136600 1.374050 -0.404650
						CHANNELS 3 Zrotation Yrotation Xrotation
						JOINT RightForeArm
						{
							OFFSET -5.241900 -0.000000 -0.000000
							CHANNELS 3 Zrotation Yrotation Xrotation
							JOINT RightHand
							{
								OFFSET -3.444170 -0.000000 -0.000000
								CHANNELS 3 Zrotation Yrotation Xrotation
								JOINT RightFingerBase
								{
									OFFSET 0.000000 0.000000 0.000000
									CHANNELS 3 Zrotation Yrotation Xrotation
									JOINT RightHandIndex1
									{
										OFFSET -0.622530 -0.000000 -0.000000
										CHANNELS 3 Zrotation Yrotation Xrotation
										End Site
										{
											OFFSET 0.000000 0.000000 0.000000
										}
									}
								}
								JOINT RThumb
								{
									OFFSET 0.000000 0.000000 0.000000
									CHANNELS 3 Zrotation Yrotation Xrotation
									End Site
									{
										OFFSET 0.000000 0.000000 0.000000
									}
								}
							}
						}
					}
				}
			}
		}
	}
}
MOTION
Frames: 9
Frame Time: 0.008333
14.632396 17.291845 1.859537 -52.279626 -88.402065 82.929468 -10.215750 -0.810026 -0.964556 -14.684790 7.968913 -53.025793 -3.183250 1.744427 27.592400 -0.180501 -1.997896 3.992529 -0.092400 -0.000000 -51.209001 8.344273 -1.176261 -2.116233 20.650324 -9.787593 -55.791613 3.713498 -4.090654 35.610562 1.510366 9.609756 10.104510 2.574900 -0.000000 -75.822200 1.544369 -2.291047 4.801202 -0.189220 -2.280645 -1.279468 -4.842180 -2.248792 2.390197 7.783941 -16.763877 -10.123691 -1.238993 -0.034627 -0.951344 0.000000 0.000000 0.000000 5.245830 14.721611 2.568615 -36.883093 8.436455 24.842377 -0.348832 -84.809379 0.014186 -10.605627 2.307814 -0.208775 0.044251 0.065054 0.000000 0.000000 0.000000 0.000000 0.000000 0.000000 0.000000 7.640857 -12.693056 1.459111 34.174184 -0.050654 14.176166 0.357331 84.071517 0.027673 3.107917 13.130945 0.364049 0.035947 -0.342035 0.000000 0.000000 0.000000 0.000000 0.000000 0.000000 0.000000 
14.459689 16.998593 1.829047 -46.143625 -88.413132 76.662043 -10.191363 -0.812675 -0.798897 -14.560181 7.409329 -54.038981 -3.186950 1.998482 32.011318 0.079585 -1.215149 -2.895808 0.074001 0.000000 -47.423600 8.205559 -1.221104 -2.075676 20.764658 -9.441814 -56.534570 3.554438 -4.334412 39.614085 1.335732 8.660638 4.116647 1.513400 -0.000000 -73.761700 1.330928 -2.368161 4.495952 -0.284073 -2.369513 -1.365542 -5.076371 -2.330316 2.393923 8.319945 -16.669925 -10.202465 -1.399257 -0.047153 -0.960109 0.000000 0.000000 0.000000 4.890082 14.732068 2.528178 -38.096951 8.438767 23.258307 -0.403857 -84.151411 0.013716 -10.017193 2.424403 -0.206757 0.027690 0.068304 0.000000 0.000000 0.000000 0.000000 0.000000 0.000000 0.000000 8.621984 -12.598501 1.356360 35.733893 -0.339716 12.485496 0.410596 83.170565 0.026225 2.238288 12.627108 0.249340 0.054125 -0.334761 0.000000 0.000000 0.000000 0.000000 0.000000 0.000000 0.000000 
14.297697 16.715071 1.796140 -39.522935 -88.414423 70.027003 -10.164110 -0.828050 -0.633021 -14.415982 6.704485 -55.312250 -3.175008 2.298822 36.582802 0.451008 -0.353677 -9.547159 -0.018200 -0.000000 -42.951300 8.062437 -1.197869 -2.014805 20.844684 -8.899854 -57.427333 3.381569 -4.546477 43.653182 1.037348 7.531535 -1.922812 0.665900 -0.000000 -71.227199 1.098825 -2.436105 4.195265 -0.377616 -2.447078 -1.450054 -5.291352 -2.401524 2.388060 8.790737 -16.560539 -10.235716 -1.544092 -0.059009 -0.958839 0.000000 0.000000 0.000000 4.624407 14.592453 2.484369 -39.383006 8.418464 21.724248 -0.469527 -83.342028 0.013080 -9.324911 2.557808 -0.202536 0.010575 0.072272 0.000000 0.000000 0.000000 0.000000 0.000000 0.000000 0.000000 9.460797 -12.507299 1.260439 37.471016 -0.460882 10.846535 0.472027 82.093867 0.024132 1.213933 12.110428 0.125432 0.073918 -0.328214 0.000000 0.000000 0.000000 0.000000 0.000000 0.000000 0.000000 
14.146794 16.446721 1.761675 -33.224243 -88.376086 63.817667 -10.136902 -0.854640 -0.473666 -14.200347 5.861182 -56.776794 -3.116250 2.640488 41.185153 0.908437 0.632554 -15.627979 -0.356200 0.000000 -38.350800 7.936536 -1.111447 -1.938178 20.892328 -8.164348 -58.394764 3.188450 -4.727421 47.594960 0.610695 6.198210 -7.752066 0.121400 0.000000 -68.268300 0.886727 -2.495119 3.913618 -0.461408 -2.513198 -1.530709 -5.487919 -2.462696 2.368537 9.188265 -16.414800 -10.222601 -1.676858 -0.070435 -0.947616 0.000000 0.000000 0.000000 4.432215 14.297939 2.440558 -40.729187 8.380609 20.278448 -0.546985 -82.361820 0.012225 -8.544537 2.697682 -0.195116 -0.006654 0.076706 0.000000 0.000000 0.000000 0.000000 0.000000 0.000000 0.000000 10.166030 -12.404301 1.176260 39.348316 -0.390708 9.311410 0.542659 80.818838 0.021436 0.079648 11.635787 -0.000279 0.094143 -0.322717 0.000000 0.000000 0.000000 0.000000 0.000000 0.000000 0.000000 
14.006846 16.198517 1.726635 -27.892839 -88.283489 58.659581 -10.117400 -0.902820 -0.329701 -13.876716 4.905799 -58.361626 -2.981775 3.008244 45.714896 1.406632 1.773385 -20.830978 -0.895701 0.000000 -34.682999 7.839912 -0.979959 -1.850478 20.904570 -7.250745 -59.364009 2.969271 -4.881494 51.322632 0.070546 4.636274 -13.147021 -0.074600 0.000000 -65.112100 0.722975 -2.547917 3.667297 -0.530249 -2.570971 -1.605388 -5.666946 -2.517318 2.330116 9.507025 -16.204897 -10.161264 -1.801931 -0.081777 -0.926185 0.000000 0.000000 0.000000 4.290885 13.847311 2.401702 -42.111063 8.332753 18.953430 -0.636538 -81.199203 0.011086 -7.702441 2.837320 -0.184304 -0.023470 0.081198 0.000000 0.000000 0.000000 0.000000 0.000000 0.000000 0.000000 10.753460 -12.265537 1.108053 41.313978 -0.127969 7.927274 0.622607 79.333648 0.018273 -1.108999 11.249890 -0.122501 0.113501 -0.318356 0.000000 0.000000 0.000000 0.000000 0.000000 0.000000 0.000000 
13.877285 15.974596 1.691947 -23.829841 -88.147662 54.825873 -10.115464 -0.987502 -0.210556 -13.427506 3.877590 -59.989774 -2.757543 3.380961 50.098017 1.893515 3.060711 -24.974170 -1.567501 -0.000000 -32.417400 7.772871 -0.824334 -1.759462 20.870695 -6.188919 -60.263066 2.721659 -5.011348 54.746811 -0.550087 2.854496 -17.949730 0.075900 0.000000 -61.894700 0.613198 -2.596207 3.475542 -0.584379 -2.622608 -1.670871 -5.828548 -2.567761 2.269818 9.746167 -15.904293 -10.052111 -1.923175 -0.093291 -0.894917 0.000000 0.000000 0.000000 4.179598 13.259608 2.373620 -43.499274 8.261807 17.785079 -0.738478 -79.840871 0.009673 -6.832693 2.972375 -0.170604 -0.039343 0.085295 0.000000 0.000000 0.000000 0.000000 0.000000 0.000000 0.000000 11.244640 -12.065762 1.058462 43.304539 0.320184 6.737015 0.711175 77.633554 0.014851 -2.292863 10.990026 -0.238637 0.130754 -0.315025 0.000000 0.000000 0.000000 0.000000 0.000000 0.000000 0.000000 
13.757169 15.778105 1.658367 -21.065163 -87.998152 52.314307 -10.138223 -1.118485 -0.125044 -12.854277 2.824866 -61.586055 -2.443783 3.738099 54.275082 2.322417 4.459839 -27.953565 -2.283500 0.000000 -31.862600 7.729742 -0.661107 -1.674096 20.778885 -5.017288 -61.022919 2.447757 -5.115363 57.797033 -1.207488 0.892673 -22.047795 0.526400 -0.000001 -58.891000 0.548438 -2.638309 3.356675 -0.627234 -2.666648 -1.724425 -5.973180 -2.612597 2.184254 9.907528 -15.485444 -9.894681 -2.043851 -0.105196 -0.853829 0.000000 0.000000 0.000000 4.077090 12.558513 2.362332 -44.857640 8.158897 16.804346 -0.852204 -78.285621 0.008043 -5.979401 3.101946 -0.155124 -0.053682 0.088494 0.000000 0.000000 0.000000 0.000000 0.000000 0.000000 0.000000 11.660196 -11.773296 1.029499 45.259683 0.928990 5.768931 0.806818 75.723842 0.011445 -3.411873 10.868308 -0.346895 0.144892 -0.312379 0.000000 0.000000 0.000000 0.000000 0.000000 0.000000 0.000000 
13.645111 15.611020 1.626439 -19.482906 -87.868233 50.977211 -10.186202 -1.297065 -0.080878 -12.176208 1.797054 -63.085231 -2.051624 4.064185 58.206710 2.661736 5.915400 -29.748440 -2.949900 -0.000000 -32.971700 7.704871 -0.501063 -1.602741 20.620678 -3.781578 -61.584386 2.156395 -5.189999 60.425029 -1.854522 -1.170055 -25.384892 1.194200 0.000000 -56.345200 0.513656 -2.671030 3.325108 -0.662991 -2.699675 -1.763681 -6.101130 -2.648327 2.072203 9.996003 -14.927279 -9.689845 -2.165605 -0.117557 -0.803187 0.000000 0.000000 0.000000 3.965610 11.776615 2.373083 -46.150611 8.009426 16.041506 -0.976760 -76.540728 0.006322 -5.193693 3.226024 -0.139464 -0.065911 0.090388 0.000000 0.000000 0.000000 0.000000 0.000000 0.000000 0.000000 12.017387 -11.359823 1.022103 47.124196 1.667743 5.038555 0.907497 73.617299 0.008309 -4.408846 10.875964 -0.445777 0.155211 -0.309958 0.000000 0.000000 0.000000 0.000000 0.000000 0.000000 0.000000 
13.539355 15.474042 1.596462 -18.931444 -87.783531 50.637205 -10.254386 -1.517520 -0.083390 -11.426607 0.837523 -64.439950 -1.596037 4.350017 61.871256 2.897586 7.367384 -30.387317 -3.477000 0.000000 -35.577900 7.694912 -0.351997 -1.551630 20.395386 -2.531693 -61.903917 1.862105 -5.232978 62.604692 -2.448927 -3.225866 -27.961215 1.975000 0.000000 -54.421000 0.494936 -2.691388 3.388191 -0.694937 -2.718343 -1.787107 -6.212433 -2.671460 1.935360 10.019076 -14.218528 -9.440369 -2.288438 -0.130283 -0.743632 0.000000 0.000000 0.000000 3.832360 10.951643 2.409556 -47.346024 7.796199 15.525210 -1.110952 -74.624266 0.004680 -4.529097 3.342200 -0.125530 -0.075554 0.090769 0.000000 0.000000 0.000000 0.000000 0.000000 0.000000 0.000000 12.329007 -10.805405 1.036004 48.853226 2.503263 4.546628 1.011037 71.335679 0.005669 -5.230172 10.988508 -0.532280 0.161329 -0.307309 0.000000 0.000000 0.000000 0.000000 0.000000 0.000000 0.000000 
